<?xml version="1.0" standalone="no"?>
<!DOCTYPE svg PUBLIC "-//W3C//DTD SVG 20010904//EN"
 "http://www.w3.org/TR/2001/REC-SVG-20010904/DTD/svg10.dtd">
<svg version="1.0" xmlns="http://www.w3.org/2000/svg"
 width="1024.000000pt" height="1024.000000pt" viewBox="0 0 1024.000000 1024.000000"
 preserveAspectRatio="xMidYMid meet">
<metadata>
Created by potrace 1.16, written by Peter Selinger 2001-2019
</metadata>
<g transform="translate(0.000000,1024.000000) scale(0.100000,-0.100000)"
fill="#000000" stroke="none">
<path d="M2773 9040 c-35 -21 -53 -65 -46 -115 10 -78 144 -739 153 -756 24
-44 53 -51 207 -53 l146 -2 4 -30 c6 -50 60 -148 112 -202 81 -84 202 -153
341 -194 l45 -13 3 -257 2 -258 -430 0 -430 0 4 212 c5 229 1 251 -49 284 -21
14 -97 16 -668 17 -702 2 -683 4 -713 -55 -12 -22 -14 -129 -14 -625 0 -651 2
-674 57 -775 50 -92 164 -175 265 -193 l37 -7 3 -347 3 -346 32 -68 c58 -122
168 -206 300 -227 32 -6 151 -10 266 -10 l207 0 0 -48 c0 -74 28 -291 51 -399
59 -274 194 -589 358 -834 99 -147 261 -342 347 -416 l55 -48 -6 -105 c-8
-146 -30 -240 -65 -289 -40 -55 -60 -63 -171 -72 -113 -9 -153 -23 -202 -74
-37 -39 -77 -112 -77 -143 0 -17 -11 -20 -89 -25 -51 -4 -113 -16 -144 -27
-66 -25 -138 -85 -174 -147 -51 -88 -53 -111 -53 -748 0 -574 1 -591 20 -623
41 -67 -172 -62 2672 -60 2473 3 2584 4 2610 21 60 41 59 28 56 694 l-3 608
-23 57 c-29 71 -100 152 -161 182 -56 29 -134 46 -204 46 l-52 0 -18 50 c-45
125 -119 177 -274 189 -74 6 -106 13 -126 27 -64 47 -107 186 -107 346 l0 91
98 101 c199 208 331 394 452 641 90 185 136 303 180 467 35 132 70 353 70 445
0 100 -17 93 219 93 299 0 385 24 487 132 105 111 114 151 114 555 l0 311 33
7 c100 22 226 123 270 217 44 94 47 138 47 757 0 625 0 615 -50 653 -24 18
-57 19 -670 20 -486 1 -651 -2 -668 -11 -56 -30 -62 -62 -62 -383 l0 -118
-420 0 -420 0 0 259 0 260 58 16 c141 41 288 136 363 235 35 46 79 143 79 173
0 9 37 13 145 14 155 1 178 7 209 56 14 21 156 729 156 776 0 35 -28 79 -60
96 -41 21 -533 22 -585 1 -51 -22 -65 -58 -65 -176 l0 -100 -1685 0 -1685 0 0
95 c0 116 -14 155 -63 178 -30 15 -73 17 -304 17 -248 0 -270 -2 -300 -20z
m460 -455 l0 -260 -88 0 -88 0 -53 250 c-30 138 -54 256 -54 263 0 10 32 12
141 10 l141 -3 1 -260z m4058 260 c3 -2 -20 -122 -50 -265 l-55 -260 -88 0
-88 0 0 265 0 265 138 0 c76 0 141 -2 143 -5z m-481 -410 l0 -115 -1685 0
-1685 0 0 115 0 115 1685 0 1685 0 0 -115z m-10 -325 c0 -3 -20 -28 -44 -56
-57 -65 -135 -118 -222 -152 l-69 -27 -1284 -3 c-742 -2 -1317 1 -1365 6 -104
12 -180 42 -253 98 -52 40 -123 117 -123 133 0 3 756 6 1680 6 924 0 1680 -2
1680 -5z m-500 -675 c0 -124 -2 -225 -4 -225 -2 0 -37 16 -79 35 -209 97 -481
177 -710 211 -150 21 -481 30 -629 15 -298 -29 -600 -108 -843 -221 -48 -22
-89 -40 -91 -40 -2 0 -4 101 -4 225 l0 225 1180 0 1180 0 0 -225z m-3620 -128
c0 -182 -5 -199 -76 -253 -33 -26 -46 -29 -110 -29 -67 0 -75 2 -103 29 -38
36 -53 85 -41 128 18 61 56 83 95 54 18 -13 18 -14 -3 -41 -27 -34 -27 -39 0
-65 73 -68 159 62 132 199 l-6 31 -124 0 -124 0 -37 -33 c-35 -32 -36 -36 -43
-125 -12 -144 -42 -174 -179 -180 -74 -3 -91 0 -119 18 -18 11 -40 36 -48 55
-19 47 -18 114 3 137 36 40 118 5 94 -41 -15 -28 -14 -38 9 -61 27 -27 66 -25
95 5 50 49 26 178 -40 209 -47 23 -257 23 -279 0 -23 -22 -23 -316 -1 -372 30
-74 23 -73 490 -73 l415 1 0 -70 0 -70 -237 0 c-131 0 -255 -5 -277 -9 -72
-17 -109 -72 -136 -203 -15 -76 -55 -113 -113 -105 -43 6 -57 19 -57 55 0 16
6 22 21 22 18 0 20 5 17 48 l-3 47 -51 3 c-68 4 -87 -17 -92 -104 -5 -80 17
-146 54 -163 16 -7 89 -11 197 -11 l172 0 -3 48 c-3 33 4 66 20 107 22 55 27
60 63 68 56 11 83 2 91 -30 10 -38 -10 -144 -36 -198 -47 -97 -116 -119 -354
-113 -131 3 -156 6 -191 25 -49 26 -90 68 -106 108 -14 36 -25 343 -13 355 5
5 60 12 122 16 62 4 115 11 118 16 5 8 -110 68 -131 68 -6 0 -28 17 -48 38
-60 62 -67 100 -67 377 0 133 2 244 4 246 2 2 236 3 520 1 l516 -2 0 -163z
m5910 -116 l-5 -279 -31 -38 c-20 -25 -60 -53 -118 -82 -49 -24 -85 -47 -80
-52 8 -7 139 -19 212 -20 l23 0 -3 -183 c-3 -181 -3 -184 -29 -218 -15 -19
-51 -48 -80 -64 -53 -29 -57 -30 -220 -33 -191 -4 -233 4 -289 54 -55 50 -95
185 -76 259 6 25 9 26 67 23 l61 -3 24 -65 c18 -48 23 -76 19 -108 l-6 -43
185 3 186 3 27 28 c25 25 28 35 31 110 3 72 1 85 -18 110 -18 23 -29 27 -71
27 -42 0 -51 -3 -58 -23 -13 -33 -2 -74 20 -80 26 -7 24 -42 -3 -61 -57 -40
-129 3 -149 89 -7 28 -16 67 -21 87 -11 47 -68 104 -117 118 -20 5 -145 10
-278 10 l-243 0 0 68 0 69 418 1 c258 0 428 5 444 11 16 6 36 27 49 53 19 38
21 56 20 201 -1 92 -6 167 -12 179 -10 19 -19 20 -138 16 -100 -2 -133 -7
-154 -21 -33 -22 -56 -64 -63 -120 -5 -37 -2 -47 21 -75 30 -36 67 -42 103
-16 23 16 29 53 11 71 -15 15 24 53 54 53 75 0 86 -127 17 -197 -37 -37 -89
-47 -175 -33 -104 17 -133 54 -146 183 -13 135 -44 157 -218 157 -104 0 -109
-1 -115 -22 -25 -94 26 -228 85 -228 23 0 69 36 69 54 0 5 -10 20 -21 33 -18
18 -20 25 -9 38 17 21 53 19 75 -5 10 -11 20 -41 22 -67 11 -131 -116 -192
-245 -117 -72 42 -85 81 -90 267 l-4 157 523 0 524 0 -5 -279z m-3110 54 c419
-64 856 -258 1165 -517 115 -96 283 -271 360 -373 234 -312 377 -698 416
-1120 41 -463 -98 -982 -372 -1386 -318 -466 -864 -837 -1415 -958 -320 -71
-701 -69 -1033 5 -256 57 -556 185 -776 331 -855 566 -1212 1587 -888 2543 68
203 191 434 321 605 61 80 270 293 357 365 106 87 285 201 430 273 266 133
549 215 850 246 125 13 459 5 585 -14z m-2005 -347 c-38 -34 -122 -113 -185
-176 l-115 -114 -105 11 c-58 6 -124 14 -147 17 l-43 5 0 160 0 159 333 0 332
0 -70 -62z m3879 -101 c2 -152 1 -158 -18 -162 -12 -2 -76 -9 -143 -15 l-122
-11 -123 123 c-68 68 -151 145 -186 172 -34 27 -62 51 -62 53 0 2 147 2 326 1
l326 -3 2 -158z m-4669 -265 c4 -20 21 -49 38 -67 31 -31 36 -32 142 -39 169
-11 162 -5 108 -89 -102 -160 -215 -414 -269 -605 l-28 -102 -163 0 -163 0 0
215 0 215 69 67 c52 53 73 82 90 128 30 80 41 143 41 236 l0 78 64 -1 64 -1 7
-35z m5007 -78 c11 -180 60 -291 158 -359 l40 -28 0 -219 0 -218 -161 2 -162
3 -47 145 c-73 226 -136 369 -239 539 -28 46 -49 86 -47 88 2 3 61 11 131 18
117 12 129 15 156 41 17 17 32 43 35 64 l6 35 61 -1 62 -2 7 -108z m-5542
-695 l0 -261 34 -34 34 -34 206 0 c152 0 206 -3 206 -12 0 -6 -5 -52 -11 -100
l-12 -89 -232 3 -232 3 -48 30 c-32 20 -56 45 -72 74 -23 44 -23 48 -23 363
l0 318 75 0 75 0 0 -261z m6095 -54 c0 -170 -3 -322 -8 -337 -11 -40 -66 -98
-112 -119 -35 -16 -69 -19 -266 -19 l-227 0 -6 58 c-4 31 -9 76 -13 100 l-5
42 207 0 207 0 34 34 34 34 0 254 c0 140 3 257 6 261 3 3 38 5 77 4 l72 -2 0
-310z m-4520 -2664 c421 -274 883 -411 1390 -412 331 0 567 39 861 142 178 62
464 208 599 304 l50 35 8 -47 c4 -27 12 -76 17 -111 17 -99 46 -167 101 -227
66 -71 130 -101 259 -119 56 -8 107 -19 113 -25 8 -8 -560 -11 -2008 -10
-1721 1 -2016 3 -1990 14 17 8 46 14 65 15 62 1 169 28 221 57 56 30 104 83
139 152 24 49 60 204 60 264 0 20 2 37 4 37 3 0 52 -31 111 -69z m3739 -681
c45 -10 81 -34 110 -74 21 -27 21 -38 21 -569 l0 -542 -2475 0 -2475 0 0 535
c0 517 1 536 20 569 25 42 62 71 106 81 48 11 4645 12 4693 0z"/>
<path d="M4945 7040 c-288 -31 -500 -92 -730 -208 -189 -95 -343 -207 -508
-370 -249 -245 -410 -512 -511 -846 -210 -691 -15 -1464 498 -1978 614 -615
1511 -778 2273 -413 713 341 1163 1051 1163 1835 0 273 -71 581 -196 848 -248
531 -756 942 -1337 1082 -67 16 -158 34 -202 39 -123 15 -361 21 -450 11z
m330 -214 c122 -7 300 -43 426 -87 1041 -356 1516 -1529 1018 -2509 -402 -789
-1310 -1170 -2144 -899 -256 84 -535 257 -728 453 -265 268 -432 593 -498 966
-30 169 -31 443 -1 603 45 239 149 496 280 693 296 443 815 742 1358 782 100
8 112 8 289 -2z"/>
<path d="M5074 6670 c-38 -15 -74 -68 -74 -109 0 -44 33 -99 70 -118 111 -56
223 77 153 183 -28 43 -100 64 -149 44z"/>
<path d="M4292 6450 c-32 -20 -62 -71 -62 -106 0 -68 85 -132 152 -114 101 28
127 147 47 215 -38 31 -91 33 -137 5z"/>
<path d="M5840 6463 c-55 -22 -88 -92 -70 -148 18 -54 62 -85 122 -85 41 0 54
5 78 29 76 76 33 198 -72 207 -24 2 -50 1 -58 -3z"/>
<path d="M5799 5719 c-239 -187 -454 -358 -480 -379 -42 -35 -47 -37 -70 -25
-13 8 -46 19 -72 26 -61 14 -156 -2 -209 -36 l-36 -24 -224 166 c-313 233
-429 318 -456 332 -30 16 -62 8 -101 -25 -34 -28 -41 -71 -19 -119 6 -14 86
-80 185 -153 96 -70 249 -181 340 -248 l165 -120 2 -80 c1 -64 7 -89 28 -130
69 -132 227 -194 363 -143 81 30 165 114 186 184 12 45 16 133 7 176 -2 10
158 159 453 421 251 224 459 414 463 423 3 9 6 34 6 56 l0 39 -48 0 -49 0
-434 -341z m-606 -580 c37 -28 53 -86 37 -133 -33 -102 -190 -100 -221 3 -15
50 -6 86 31 122 24 24 37 29 78 29 35 0 57 -6 75 -21z"/>
<path d="M3722 5885 c-45 -37 -61 -95 -39 -140 48 -100 197 -98 228 4 15 49 7
82 -29 122 -23 25 -38 33 -78 36 -43 5 -54 2 -82 -22z"/>
<path d="M6390 5893 c-98 -50 -83 -199 21 -222 45 -10 106 9 131 41 78 101
-38 239 -152 181z"/>
<path d="M3543 5176 c-78 -35 -95 -139 -34 -200 26 -26 39 -31 79 -31 77 0
122 46 122 126 0 80 -92 138 -167 105z"/>
<path d="M6605 5175 c-22 -8 -41 -15 -42 -15 -11 -1 -43 -75 -43 -101 0 -38
34 -93 68 -108 93 -43 198 42 172 139 -12 46 -32 68 -77 86 -18 8 -34 14 -35
14 -2 -1 -21 -7 -43 -15z"/>
<path d="M6413 4423 c-13 -2 -36 -17 -52 -33 -81 -82 -16 -219 99 -207 60 7
110 59 110 114 0 50 -32 101 -75 119 -35 14 -42 15 -82 7z"/>
<path d="M3732 4400 c-46 -28 -68 -82 -53 -131 16 -53 62 -89 113 -89 96 0
155 89 113 170 -35 68 -108 89 -173 50z"/>
<path d="M4276 3830 c-40 -36 -52 -76 -36 -125 18 -54 62 -85 122 -85 41 0 54
5 78 28 111 112 -46 285 -164 182z"/>
<path d="M5811 3834 c-43 -36 -58 -89 -38 -137 52 -123 237 -89 237 43 0 99
-124 157 -199 94z"/>
<path d="M5064 3641 c-18 -11 -39 -30 -48 -42 -31 -45 -13 -129 36 -163 28
-20 100 -21 137 -1 31 15 61 69 61 107 0 36 -37 88 -75 104 -46 19 -74 18
-111 -5z"/>
<path d="M2854 2230 c-41 -16 -44 -53 -44 -486 l0 -412 26 -31 26 -31 2257 0
2258 0 24 26 24 26 3 416 c1 229 0 427 -3 440 -3 12 -14 31 -25 42 -20 20 -43
20 -2272 19 -1239 0 -2263 -4 -2274 -9z m2155 -166 c20 -26 21 -38 21 -318 0
-222 -3 -296 -13 -310 -11 -16 -33 -17 -222 -16 -283 1 -279 -3 -273 218 2
104 6 135 18 142 8 6 53 9 99 8 82 -3 85 -4 92 -30 4 -14 4 -41 0 -60 -6 -28
-11 -33 -39 -36 -31 -3 -32 -5 -32 -51 0 -27 6 -53 13 -59 13 -11 64 -16 134
-13 70 2 73 9 73 202 0 98 -4 179 -10 190 -10 18 -26 19 -418 19 -476 0 -452
5 -452 -90 0 -51 3 -61 23 -71 28 -15 37 -28 37 -58 0 -46 -26 -61 -106 -61
-103 0 -104 2 -104 201 0 143 2 159 21 182 l20 27 192 2 c106 2 352 4 549 6
l356 2 21 -26z m1306 20 c36 -14 45 -57 45 -217 0 -187 -1 -189 -93 -195 -56
-4 -68 -1 -86 17 -31 31 -29 84 4 99 23 10 25 17 25 70 0 102 24 97 -437 97
-379 0 -395 -1 -409 -19 -11 -15 -14 -59 -14 -188 0 -208 0 -208 118 -208 47
0 83 5 90 12 15 15 16 90 1 105 -6 6 -17 9 -23 7 -14 -5 -32 27 -41 72 -10 50
13 64 100 64 103 0 105 -4 105 -188 0 -138 -1 -144 -25 -167 -23 -24 -29 -25
-177 -27 -84 -1 -174 -2 -200 -2 -37 -1 -53 4 -70 22 -23 22 -23 26 -26 312
l-3 290 25 25 25 25 525 0 c288 0 532 -3 541 -6z m899 -7 c28 -20 34 -84 35
-337 0 -251 -6 -296 -46 -316 -16 -8 -208 -11 -654 -10 l-632 1 -18 25 c-13
17 -21 49 -24 100 -6 85 3 231 16 252 11 17 104 17 121 0 8 -8 15 -52 19 -118
3 -61 11 -110 18 -117 9 -9 134 -13 506 -15 485 -2 495 -2 515 18 19 19 20 33
20 192 0 145 -3 174 -17 190 -14 16 -34 18 -193 18 -123 0 -180 -4 -188 -12
-7 -7 -12 -35 -12 -63 0 -28 5 -56 12 -63 8 -8 49 -12 119 -12 66 0 110 -4
114 -11 4 -6 7 -27 7 -47 0 -66 -19 -72 -213 -72 -213 0 -199 -14 -199 203 0
154 1 158 25 182 l24 25 314 0 c242 0 317 -3 331 -13z m-3559 -22 c24 -24 25
-28 25 -183 0 -121 -3 -163 -14 -178 -13 -17 -29 -19 -148 -22 -160 -4 -183 2
-199 57 -18 61 -5 71 93 71 105 0 118 8 118 70 0 75 -12 80 -197 80 -212 0
-203 13 -183 -260 8 -112 11 -127 32 -143 21 -18 47 -19 495 -15 471 3 472 3
494 25 19 18 23 35 24 95 1 40 3 83 4 95 2 35 28 53 76 53 69 0 75 -16 75
-187 0 -151 -9 -190 -44 -198 -12 -2 -300 -6 -640 -8 l-620 -4 -22 22 c-32 32
-36 80 -32 357 3 213 5 247 21 271 l17 27 301 0 300 0 24 -25z"/>
</g>
</svg>
